:FULLY-SPECIFIED
:FORCE-ALL-JOINTS-BE-3DOF
:DEGREES
747
root 4.06968 16.9684 14.3425 -163.202 -6.35773 -170.419
lfemur -29.66 -0.968214 -13.2316
ltibia 41.0657 -0 0
lfoot -27.4172 6.47126 0.0223694
ltoes 6.382 -0 0
rfemur -26.8961 -31.8728 8.46655
rtibia 106.389 -0 0
rfoot 13.6653 2.93408 0.81173
rtoes 13.7687 -0 0
lowerback 1.86779 6.96474 -1.46296
upperback -1.65388 9.22572 -1.24351
thorax -2.77075 4.61862 -0.868794
lowerneck -6.68319 -8.28155 -0.965574
upperneck -1.97365 -11.1256 4.70328
head 0.829045 -5.56473 1.28892
lclavicle 3.97569e-016 1.90833e-014 0
lhumerus -56.6933 -5.87983 72.1119
lradius 49.0401 -0 0
lwrist 16.7812 0 0
lhand -26.5099 -3.89527 -0.0118882
lfingers 7.12502 -0 0
lthumb 0.0531582 26.0767 -0.0119224
rclavicle 3.97569e-016 1.90833e-014 0
rhumerus 28.9686 35.8557 -63.2865
rradius 95.5056 -0 0
rwrist -2.67744 0 0
rhand -24.3664 -23.0761 0.00585059
rfingers 7.12502 -0 0
rthumb 2.12351 -53.0437 0.00571587
748
root 3.99261 16.9414 14.4764 -163.079 -3.12407 -170.273
lfemur -30.0197 -0.136935 -13.3623
ltibia 41.5032 -0 0
lfoot -27.343 7.06377 0.0324047
ltoes 7.03132 -0 0
rfemur -26.5181 -31.6981 8.967
rtibia 104.591 -0 0
rfoot 12.5438 1.57538 1.17816
rtoes 12.5525 -0 0
lowerback 1.83775 6.88752 -1.46989
upperback -1.64228 9.12362 -1.3428
thorax -2.72985 4.56742 -0.957531
lowerneck -6.63314 -8.2451 -0.975909
upperneck -2.00457 -11.0679 4.74733
head 0.812518 -5.53275 1.30888
lclavicle 3.97569e-016 1.90833e-014 0
lhumerus -56.6154 -6.06777 72.8815
lradius 49.7863 -0 0
lwrist 16.5755 0 0
lhand -26.2633 -3.99041 -0.0172182
lfingers 7.12502 -0 0
lthumb 0.291291 25.9779 -0.0172676
rclavicle 3.97569e-016 1.90833e-014 0
rhumerus 27.5287 36.7965 -64.329
rradius 94.9724 -0 0
rwrist -2.34607 0 0
rhand -24.2722 -22.9534 0.0084734
rfingers 7.12502 -0 0
rthumb 2.21444 -52.9196 0.00827829
749
root 3.91554 16.9144 14.6102 -162.949 0.109258 -170.12
lfemur -30.3813 0.693504 -13.4981
ltibia 41.9407 -0 0
lfoot -27.2687 7.6563 0.0416723
ltoes 7.68065 -0 0
rfemur -26.139 -31.5262 9.46787
rtibia 102.794 -0 0
rfoot 11.4139 0.20957 1.51783
rtoes 11.3362 -0 0
lowerback 1.80773 6.81028 -1.47678
upperback -1.6305 9.02154 -1.44209
thorax -2.68888 4.51628 -1.0463
lowerneck -6.58311 -8.20863 -0.986211
upperneck -2.03544 -11.0101 4.79134
head 0.796002 -5.50076 1.32883
lclavicle 3.97569e-016 1.90833e-014 0
lhumerus -56.54 -6.25674 73.651
lradius 50.5326 -0 0
lwrist 16.3699 0 0
lhand -26.0167 -4.08558 -0.0221386
lfingers 7.12502 -0 0
lthumb 0.529433 25.8791 -0.0222022
rclavicle 3.97569e-016 1.90833e-014 0
rhumerus 26.0495 37.7156 -65.414
rradius 94.4393 -0 0
rwrist -2.01471 0 0
rhand -24.1781 -22.8307 0.0108945
rfingers 7.12502 -0 0
rthumb 2.30537 -52.7954 0.0106437
750
root 3.83847 16.8874 14.7441 -162.809 3.34222 -169.96
lfemur -30.7449 1.52307 -13.6393
ltibia 42.3782 -0 0
lfoot -27.1943 8.24884 0.0501711
ltoes 8.32998 -0 0
rfemur -25.7589 -31.3571 9.96914
rtibia 100.997 -0 0
rfoot 10.276 -1.16291 1.83042
rtoes 10.12 -0 0
lowerback 1.77773 6.73305 -1.48363
upperback -1.61855 8.91948 -1.54137
thorax -2.64782 4.46521 -1.1351
lowerneck -6.53308 -8.17216 -0.99648
upperneck -2.06625 -10.9524 4.83531
head 0.779498 -5.46877 1.34876
lclavicle 3.97569e-016 1.90833e-014 0
lhumerus -56.4671 -6.44669 74.4206
lradius 51.2788 -0 0
lwrist 16.1642 0 0
lhand -25.7701 -4.18077 -0.0266493
lfingers 7.12502 -0 0
lthumb 0.767583 25.7802 -0.0267258
rclavicle 3.97569e-016 1.90833e-014 0
rhumerus 24.5298 38.6118 -66.5426
rradius 93.9061 -0 0
rwrist -1.68335 0 0
rhand -24.0839 -22.7079 0.013114
rfingers 7.12502 -0 0
rthumb 2.39632 -52.6713 0.012812
751
root 3.7614 16.8605 14.8779 -162.66 6.57476 -169.791
lfemur -31.1108 2.35172 -13.7858
ltibia 42.8156 -0 0
lfoot -27.1198 8.84138 0.0579002
ltoes 8.97931 -0 0
rfemur -25.3777 -31.1909 10.4708
rtibia 99.1998 -0 0
rfoot 9.13071 -2.54157 2.11561
rtoes 8.90375 -0 0
lowerback 1.74774 6.65581 -1.49044
upperback -1.60642 8.81743 -1.64065
thorax -2.6067 4.4142 -1.22392
lowerneck -6.48307 -8.13567 -1.00672
upperneck -2.09702 -10.8946 4.87925
head 0.763007 -5.43678 1.36869
lclavicle 3.97569e-016 1.90833e-014 0
lhumerus -56.3968 -6.63761 75.1903
lradius 52.025 -0 0
lwrist 15.9586 0 0
lhand -25.5235 -4.27597 -0.0307503
lfingers 7.12502 -0 0
lthumb 1.00574 25.6813 -0.0308385
rclavicle 3.97569e-016 1.90833e-014 0
rhumerus 22.9683 39.4839 -67.7157
rradius 93.3729 -0 0
rwrist -1.35199 0 0
rhand -23.9897 -22.5852 0.0151317
rfingers 7.12502 -0 0
rthumb 2.48726 -52.5471 0.0147832
752
root 3.68433 16.8335 15.0118 -162.499 9.80684 -169.612
lfemur -31.479 3.17941 -13.9377
ltibia 43.2531 -0 0
lfoot -27.0453 9.43394 0.0648588
ltoes 9.62863 -0 0
rfemur -24.9955 -31.0276 10.9729
rtibia 97.4026 -0 0
rfoot 7.97868 -3.92591 2.37311
rtoes 7.68751 -0 0
lowerback 1.71776 6.57857 -1.4972
upperback -1.59412 8.71541 -1.73992
thorax -2.56549 4.36325 -1.31278
lowerneck -6.43307 -8.09918 -1.01692
upperneck -2.12774 -10.8367 4.92314
head 0.746528 -5.40477 1.38861
lclavicle 3.97569e-016 1.90833e-014 0
lhumerus -56.3291 -6.82944 75.96
lradius 52.7712 -0 0
lwrist 15.7529 0 0
lhand -25.2768 -4.3712 -0.0344415
lfingers 7.12502 -0 0
lthumb 1.2439 25.5825 -0.0345402
rclavicle 3.97569e-016 1.90833e-014 0
rhumerus 21.3641 40.3304 -68.9345
rradius 92.8397 -0 0
rwrist -1.02063 0 0
rhand -23.8955 -22.4625 0.0169477
rfingers 7.12502 -0 0
rthumb 2.57821 -52.4229 0.0165574
753
root 3.60726 16.8065 15.1456 -162.327 13.0384 -169.422
lfemur -31.8498 4.00611 -14.095
ltibia 43.6906 -0 0
lfoot -26.9707 10.0265 0.0710462
ltoes 10.278 -0 0
rfemur -24.6123 -30.8671 11.4754
rtibia 95.6054 -0 0
rfoot 6.82055 -5.31542 2.60268
rtoes 6.47126 -0 0
lowerback 1.68779 6.50132 -1.50392
upperback -1.58164 8.61341 -1.83918
thorax -2.52421 4.31237 -1.40167
lowerneck -6.38308 -8.06268 -1.02709
upperneck -2.1584 -10.7789 4.96699
head 0.73006 -5.37276 1.40851
lclavicle 3.97569e-016 1.90833e-014 0
lhumerus -56.2639 -7.02216 76.7298
lradius 53.5174 -0 0
lwrist 15.5472 0 0
lhand -25.0302 -4.46643 -0.0377227
lfingers 7.12502 -0 0
lthumb 1.48207 25.4835 -0.0378308
rclavicle 3.97569e-016 1.90833e-014 0
rhumerus 19.7161 41.1501 -70.1995
rradius 92.3065 -0 0
rwrist -0.689265 0 0
rhand -23.8014 -22.3397 0.0185619
rfingers 7.12502 -0 0
rthumb 2.66917 -52.2988 0.0181345
754
root 3.53019 16.7796 15.2795 -162.141 16.2693 -169.218
lfemur -32.2232 4.83177 -14.2579
ltibia 44.1281 -0 0
lfoot -26.896 10.6191 0.0764616
ltoes 10.9273 -0 0
rfemur -24.2281 -30.7095 11.9783
rtibia 93.8082 -0 0
rfoot 5.65698 -6.70953 2.80408
rtoes 5.25502 -0 0
lowerback 1.65784 6.42407 -1.51061
upperback -1.56899 8.51143 -1.93845
thorax -2.48285 4.26155 -1.49059
lowerneck -6.3331 -8.02617 -1.03723
upperneck -2.18902 -10.721 5.0108
head 0.713605 -5.34075 1.42841
lclavicle 3.97569e-016 1.90833e-014 0
lhumerus -56.2013 -7.21573 77.4997
lradius 54.2636 -0 0
lwrist 15.3416 0 0
lhand -24.7836 -4.56169 -0.0405939
lfingers 7.12502 -0 0
lthumb 1.72025 25.3846 -0.0407101
rclavicle 3.97569e-016 1.90833e-014 0
rhumerus 18.0236 41.9415 -71.5116
rradius 91.7733 -0 0
rwrist -0.357903 0 0
rhand -23.7072 -22.217 0.0199744
rfingers 7.12502 -0 0
rthumb 2.76012 -52.1746 0.0195144
755
root 3.45312 16.7526 15.4133 -161.939 19.4996 -169
lfemur -32.5996 5.65635 -14.4264
ltibia 44.5656 -0 0
lfoot -26.8213 11.2117 0.0811044
ltoes 11.5766 -0 0
rfemur -23.8429 -30.5548 12.4816
rtibia 92.011 -0 0
rfoot 4.48865 -8.10768 2.9771
rtoes 4.03878 -0 0
lowerback 1.62791 6.34682 -1.51725
upperback -1.55616 8.40948 -2.0377
thorax -2.44142 4.21079 -1.57955
lowerneck -6.28313 -7.98965 -1.04733
upperneck -2.21958 -10.6631 5.05457
head 0.697161 -5.30873 1.44829
lclavicle 3.97569e-016 1.90833e-014 0
lhumerus -56.1414 -7.41012 78.2697
lradius 55.0098 -0 0
lwrist 15.1359 0 0
lhand -24.5369 -4.65695 -0.0430551
lfingers 7.12502 -0 0
lthumb 1.95843 25.2857 -0.0431783
rclavicle 3.97569e-016 1.90833e-014 0
rhumerus 16.2858 42.7031 -72.8712
rradius 91.2401 -0 0
rwrist -0.0265406 0 0
rhand -23.613 -22.0943 0.0211851
rfingers 7.12502 -0 0
rthumb 2.85108 -52.0504 0.0206973
756
root 3.37605 16.7256 15.5472 -161.719 22.7291 -168.765
lfemur -32.9789 6.4798 -14.6007
ltibia 45.0031 -0 0
lfoot -26.7465 11.8043 0.0849743
ltoes 12.2259 -0 0
rfemur -23.4568 -30.403 12.9854
rtibia 90.2138 -0 0
rfoot 3.31628 -9.50927 3.12156
rtoes 2.82254 -0 0
lowerback 1.59798 6.26956 -1.52384
upperback -1.54315 8.30754 -2.13696
thorax -2.39991 4.1601 -1.66853
lowerneck -6.23317 -7.95313 -1.0574
upperneck -2.25009 -10.6052 5.0983
head 0.68073 -5.27671 1.46817
lclavicle 3.97569e-016 1.90833e-014 0
lhumerus -56.084 -7.60529 79.0399
lradius 55.756 -0 0
lwrist 14.9303 0 0
lhand -24.2903 -4.75222 -0.0451061
lfingers 7.12502 -0 0
lthumb 2.19661 25.1868 -0.0452352
rclavicle 3.97569e-016 1.90833e-014 0
rhumerus 14.5023 43.4335 -74.2786
rradius 90.7069 -0 0
rwrist 0.304821 0 0
rhand -23.5188 -21.9715 0.0221941
rfingers 7.12502 -0 0
rthumb 2.94205 -51.9263 0.021683
